<svg width="601" height="203" viewBox="0 0 601 203" fill="none" xmlns="http://www.w3.org/2000/svg">
<path d="M72.2891 148L43.0891 95H34.8891V148H0.689063V7.6H58.0891C69.1557 7.6 78.5557 9.53333 86.2891 13.4C94.1557 17.2667 100.022 22.6 103.889 29.4C107.756 36.0667 109.689 43.5333 109.689 51.8C109.689 61.1333 107.022 69.4667 101.689 76.8C96.4891 84.1333 88.7557 89.3333 78.4891 92.4L110.889 148H72.2891ZM34.8891 70.8H56.0891C62.3557 70.8 67.0224 69.2667 70.0891 66.2C73.2891 63.1333 74.8891 58.8 74.8891 53.2C74.8891 47.8667 73.2891 43.6667 70.0891 40.6C67.0224 37.5333 62.3557 36 56.0891 36H34.8891V70.8ZM218.358 90.4C218.358 93.6 218.158 96.9333 217.758 100.4H140.358C140.891 107.333 143.091 112.667 146.958 116.4C150.958 120 155.824 121.8 161.558 121.8C170.091 121.8 176.024 118.2 179.358 111H215.758C213.891 118.333 210.491 124.933 205.558 130.8C200.758 136.667 194.691 141.267 187.358 144.6C180.024 147.933 171.824 149.6 162.758 149.6C151.824 149.6 142.091 147.267 133.558 142.6C125.024 137.933 118.358 131.267 113.558 122.6C108.758 113.933 106.358 103.8 106.358 92.2C106.358 80.6 108.691 70.4667 113.358 61.8C118.158 53.1333 124.824 46.4667 133.358 41.8C141.891 37.1333 151.691 34.8 162.758 34.8C173.558 34.8 183.158 37.0667 191.558 41.6C199.958 46.1333 206.491 52.6 211.158 61C215.958 69.4 218.358 79.2 218.358 90.4ZM183.358 81.4C183.358 75.5333 181.358 70.8667 177.358 67.4C173.358 63.9333 168.358 62.2 162.358 62.2C156.624 62.2 151.758 63.8667 147.758 67.2C143.891 70.5333 141.491 75.2667 140.558 81.4H183.358ZM260.8 34.8C268.667 34.8 275.533 36.4 281.4 39.6C287.4 42.8 292 47 295.2 52.2V36.4H329.4V147.8C329.4 158.067 327.333 167.333 323.2 175.6C319.2 184 313 190.667 304.6 195.6C296.333 200.533 286 203 273.6 203C257.067 203 243.667 199.067 233.4 191.2C223.133 183.467 217.267 172.933 215.8 159.6H249.6C250.667 163.867 253.2 167.2 257.2 169.6C261.2 172.133 266.133 173.4 272 173.4C279.067 173.4 284.667 171.333 288.8 167.2C293.067 163.2 295.2 156.733 295.2 147.8V132C291.867 137.2 287.267 141.467 281.4 144.8C275.533 148 268.667 149.6 260.8 149.6C251.6 149.6 243.267 147.267 235.8 142.6C228.333 137.8 222.4 131.067 218 122.4C213.733 113.6 211.6 103.467 211.6 92C211.6 80.5333 213.733 70.4667 218 61.8C222.4 53.1333 228.333 46.4667 235.8 41.8C243.267 37.1333 251.6 34.8 260.8 34.8ZM295.2 92.2C295.2 83.6667 292.8 76.9333 288 72C283.333 67.0667 277.6 64.6 270.8 64.6C264 64.6 258.2 67.0667 253.4 72C248.733 76.8 246.4 83.4667 246.4 92C246.4 100.533 248.733 107.333 253.4 112.4C258.2 117.333 264 119.8 270.8 119.8C277.6 119.8 283.333 117.333 288 112.4C292.8 107.467 295.2 100.733 295.2 92.2ZM329.342 92C329.342 80.5333 331.476 70.4667 335.742 61.8C340.142 53.1333 346.076 46.4667 353.542 41.8C361.009 37.1333 369.342 34.8 378.542 34.8C386.409 34.8 393.276 36.4 399.142 39.6C405.142 42.8 409.742 47 412.942 52.2V36.4H447.142V148H412.942V132.2C409.609 137.4 404.942 141.6 398.942 144.8C393.076 148 386.209 149.6 378.342 149.6C369.276 149.6 361.009 147.267 353.542 142.6C346.076 137.8 340.142 131.067 335.742 122.4C331.476 113.6 329.342 103.467 329.342 92ZM412.942 92.2C412.942 83.6667 410.542 76.9333 405.742 72C401.076 67.0667 395.342 64.6 388.542 64.6C381.742 64.6 375.942 67.0667 371.142 72C366.476 76.8 364.142 83.4667 364.142 92C364.142 100.533 366.476 107.333 371.142 112.4C375.942 117.333 381.742 119.8 388.542 119.8C395.342 119.8 401.076 117.333 405.742 112.4C410.542 107.467 412.942 100.733 412.942 92.2ZM488.084 -1.90735e-06V148H453.884V-1.90735e-06H488.084ZM600.069 90.4C600.069 93.6 599.869 96.9333 599.469 100.4H522.069C522.602 107.333 524.802 112.667 528.669 116.4C532.669 120 537.535 121.8 543.269 121.8C551.802 121.8 557.735 118.2 561.069 111H597.469C595.602 118.333 592.202 124.933 587.269 130.8C582.469 136.667 576.402 141.267 569.069 144.6C561.735 147.933 553.535 149.6 544.469 149.6C533.535 149.6 523.802 147.267 515.269 142.6C506.735 137.933 500.069 131.267 495.269 122.6C490.469 113.933 488.069 103.8 488.069 92.2C488.069 80.6 490.402 70.4667 495.069 61.8C499.869 53.1333 506.535 46.4667 515.069 41.8C523.602 37.1333 533.402 34.8 544.469 34.8C555.269 34.8 564.869 37.0667 573.269 41.6C581.669 46.1333 588.202 52.6 592.869 61C597.669 69.4 600.069 79.2 600.069 90.4ZM565.069 81.4C565.069 75.5333 563.069 70.8667 559.069 67.4C555.069 63.9333 550.069 62.2 544.069 62.2C538.335 62.2 533.469 63.8667 529.469 67.2C525.602 70.5333 523.202 75.2667 522.269 81.4H565.069Z" fill="#2D3053"/>
</svg>
