<svg width="537" height="191" viewBox="0 0 537 191" fill="none" xmlns="http://www.w3.org/2000/svg">
<path d="M0.495313 146V3.99999H63.2953C69.8286 3.99999 75.8286 5.39999 81.2953 8.2C86.8953 10.8667 91.6953 14.4667 95.6953 19C99.6953 23.4 102.829 28.4667 105.095 34.2C107.362 39.8 108.495 45.4667 108.495 51.2C108.495 60.4 106.162 68.8 101.495 76.4C96.962 83.8667 90.762 89.2667 82.8953 92.6L115.295 146H84.2953L55.2953 98.4H28.0953V146H0.495313ZM28.0953 74.2H62.6953C65.2286 74.2 67.562 73.6 69.6953 72.4C71.962 71.2 73.8953 69.6 75.4953 67.6C77.0953 65.4667 78.362 63 79.2953 60.2C80.2287 57.4 80.6953 54.4 80.6953 51.2C80.6953 47.8667 80.162 44.8 79.0953 42C78.0286 39.2 76.562 36.8 74.6953 34.8C72.962 32.6667 70.8953 31.0667 68.4953 30C66.2287 28.8 63.8953 28.2 61.4953 28.2H28.0953V74.2ZM152.573 148C144.173 148 136.573 146.6 129.773 143.8C122.973 140.867 117.173 136.933 112.373 132C107.573 127.067 103.84 121.333 101.173 114.8C98.6401 108.267 97.3734 101.4 97.3734 94.2C97.3734 86.7333 98.6401 79.7333 101.173 73.2C103.707 66.5333 107.373 60.7333 112.173 55.8C116.973 50.7333 122.773 46.7333 129.573 43.8C136.507 40.8667 144.24 39.4 152.773 39.4C161.307 39.4 168.907 40.8667 175.573 43.8C182.373 46.7333 188.107 50.6667 192.773 55.6C197.573 60.5333 201.173 66.2667 203.573 72.8C206.107 79.3333 207.373 86.1333 207.373 93.2C207.373 94.9333 207.307 96.6 207.173 98.2C207.173 99.8 207.04 101.133 206.773 102.2H125.773C126.173 106.333 127.173 110 128.773 113.2C130.373 116.4 132.44 119.133 134.973 121.4C137.507 123.667 140.373 125.4 143.573 126.6C146.773 127.8 150.107 128.4 153.573 128.4C158.907 128.4 163.907 127.133 168.573 124.6C173.373 121.933 176.64 118.467 178.373 114.2L201.373 120.6C197.507 128.6 191.307 135.2 182.773 140.4C174.373 145.467 164.307 148 152.573 148ZM179.773 84.8C179.107 76.9333 176.173 70.6667 170.973 66C165.907 61.2 159.707 58.8 152.373 58.8C148.773 58.8 145.373 59.4667 142.173 60.8C139.107 62 136.373 63.7333 133.973 66C131.573 68.2667 129.573 71 127.973 74.2C126.507 77.4 125.64 80.9333 125.373 84.8H179.773ZM240.7 146.6C233.633 146.6 227.233 145.2 221.5 142.4C215.767 139.6 210.767 135.8 206.5 131C202.367 126.067 199.167 120.4 196.9 114C194.633 107.6 193.5 100.8 193.5 93.6C193.5 86 194.7 78.9333 197.1 72.4C199.5 65.8667 202.833 60.1333 207.1 55.2C211.367 50.2667 216.5 46.4 222.5 43.6C228.5 40.8 235.1 39.4 242.3 39.4C250.433 39.4 257.567 41.2667 263.7 45C269.833 48.6 274.9 53.4667 278.9 59.6V41.2H302.3V141C302.3 148.733 300.833 155.667 297.9 161.8C294.967 167.933 290.9 173.133 285.7 177.4C280.633 181.667 274.5 184.933 267.3 187.2C260.233 189.467 252.5 190.6 244.1 190.6C232.633 190.6 222.967 188.667 215.1 184.8C207.367 181.067 200.7 175.733 195.1 168.8L209.7 154.6C213.7 159.533 218.7 163.4 224.7 166.2C230.833 169 237.3 170.4 244.1 170.4C248.233 170.4 252.167 169.8 255.9 168.6C259.767 167.533 263.167 165.8 266.1 163.4C269.033 161 271.3 157.933 272.9 154.2C274.633 150.467 275.5 146.067 275.5 141V127.8C272.033 133.8 267.167 138.467 260.9 141.8C254.633 145 247.9 146.6 240.7 146.6ZM249.7 125.2C252.633 125.2 255.433 124.733 258.1 123.8C260.767 122.867 263.233 121.6 265.5 120C267.767 118.4 269.767 116.533 271.5 114.4C273.233 112.267 274.567 110 275.5 107.6V82.6C273.1 76.4667 269.3 71.5333 264.1 67.8C259.033 64.0667 253.7 62.2 248.1 62.2C243.967 62.2 240.233 63.1333 236.9 65C233.567 66.7333 230.7 69.1333 228.3 72.2C225.9 75.1333 224.033 78.5333 222.7 82.4C221.5 86.2667 220.9 90.2667 220.9 94.4C220.9 98.6667 221.633 102.667 223.1 106.4C224.567 110.133 226.567 113.4 229.1 116.2C231.767 119 234.833 121.2 238.3 122.8C241.767 124.4 245.567 125.2 249.7 125.2ZM331.058 148C325.991 148 321.258 147.2 316.858 145.6C312.458 143.867 308.658 141.533 305.458 138.6C302.258 135.533 299.724 132 297.858 128C296.124 124 295.258 119.6 295.258 114.8C295.258 109.867 296.324 105.333 298.458 101.2C300.724 96.9333 303.791 93.3333 307.658 90.4C311.658 87.4667 316.391 85.2 321.858 83.6C327.324 81.8667 333.324 81 339.858 81C344.524 81 349.058 81.4 353.458 82.2C357.991 83 361.991 84.1333 365.458 85.6V79.6C365.458 72.6667 363.458 67.3333 359.458 63.6C355.591 59.8667 349.791 58 342.058 58C336.458 58 330.991 59 325.658 61C320.324 63 314.858 65.9333 309.258 69.8L301.058 52.8C314.524 43.8667 329.058 39.4 344.658 39.4C359.724 39.4 371.391 43.1333 379.658 50.6C388.058 57.9333 392.258 68.6 392.258 82.6V115.2C392.258 118 392.724 120 393.658 121.2C394.724 122.4 396.391 123.067 398.658 123.2V146C394.124 146.933 390.191 147.4 386.858 147.4C381.791 147.4 377.858 146.267 375.058 144C372.391 141.733 370.724 138.733 370.058 135L369.458 129.2C364.791 135.333 359.124 140 352.458 143.2C345.791 146.4 338.658 148 331.058 148ZM338.658 128.4C343.191 128.4 347.458 127.6 351.458 126C355.591 124.4 358.791 122.267 361.058 119.6C363.991 117.333 365.458 114.8 365.458 112V100C362.258 98.8 358.791 97.8667 355.058 97.2C351.324 96.4 347.724 96 344.258 96C337.324 96 331.658 97.6 327.258 100.8C322.858 103.867 320.658 107.8 320.658 112.6C320.658 117.133 322.391 120.933 325.858 124C329.324 126.933 333.591 128.4 338.658 128.4ZM393.102 -3.8147e-06H419.902V112.4C419.902 116.267 420.835 119.267 422.702 121.4C424.568 123.533 427.235 124.6 430.702 124.6C432.302 124.6 434.035 124.333 435.902 123.8C437.902 123.267 439.768 122.6 441.502 121.8L445.102 142.2C441.502 143.933 437.302 145.267 432.502 146.2C427.702 147.133 423.368 147.6 419.502 147.6C411.102 147.6 404.568 145.4 399.902 141C395.368 136.467 393.102 130.067 393.102 121.8V-3.8147e-06ZM481.378 148C472.978 148 465.378 146.6 458.578 143.8C451.778 140.867 445.978 136.933 441.178 132C436.378 127.067 432.645 121.333 429.978 114.8C427.445 108.267 426.178 101.4 426.178 94.2C426.178 86.7333 427.445 79.7333 429.978 73.2C432.511 66.5333 436.178 60.7333 440.978 55.8C445.778 50.7333 451.578 46.7333 458.378 43.8C465.311 40.8667 473.045 39.4 481.578 39.4C490.111 39.4 497.711 40.8667 504.378 43.8C511.178 46.7333 516.911 50.6667 521.578 55.6C526.378 60.5333 529.978 66.2667 532.378 72.8C534.911 79.3333 536.178 86.1333 536.178 93.2C536.178 94.9333 536.111 96.6 535.978 98.2C535.978 99.8 535.845 101.133 535.578 102.2H454.578C454.978 106.333 455.978 110 457.578 113.2C459.178 116.4 461.245 119.133 463.778 121.4C466.311 123.667 469.178 125.4 472.378 126.6C475.578 127.8 478.911 128.4 482.378 128.4C487.711 128.4 492.711 127.133 497.378 124.6C502.178 121.933 505.445 118.467 507.178 114.2L530.178 120.6C526.311 128.6 520.111 135.2 511.578 140.4C503.178 145.467 493.111 148 481.378 148ZM508.578 84.8C507.911 76.9333 504.978 70.6667 499.778 66C494.711 61.2 488.511 58.8 481.178 58.8C477.578 58.8 474.178 59.4667 470.978 60.8C467.911 62 465.178 63.7333 462.778 66C460.378 68.2667 458.378 71 456.778 74.2C455.311 77.4 454.445 80.9333 454.178 84.8H508.578Z" fill="#4B3848"/>
<path d="M0.495313 146V3.99999H63.2953C69.8286 3.99999 75.8286 5.39999 81.2953 8.2C86.8953 10.8667 91.6953 14.4667 95.6953 19C99.6953 23.4 102.829 28.4667 105.095 34.2C107.362 39.8 108.495 45.4667 108.495 51.2C108.495 60.4 106.162 68.8 101.495 76.4C96.962 83.8667 90.762 89.2667 82.8953 92.6L115.295 146H84.2953L55.2953 98.4H28.0953V146H0.495313ZM28.0953 74.2H62.6953C65.2286 74.2 67.562 73.6 69.6953 72.4C71.962 71.2 73.8953 69.6 75.4953 67.6C77.0953 65.4667 78.362 63 79.2953 60.2C80.2287 57.4 80.6953 54.4 80.6953 51.2C80.6953 47.8667 80.162 44.8 79.0953 42C78.0286 39.2 76.562 36.8 74.6953 34.8C72.962 32.6667 70.8953 31.0667 68.4953 30C66.2287 28.8 63.8953 28.2 61.4953 28.2H28.0953V74.2ZM152.573 148C144.173 148 136.573 146.6 129.773 143.8C122.973 140.867 117.173 136.933 112.373 132C107.573 127.067 103.84 121.333 101.173 114.8C98.6401 108.267 97.3734 101.4 97.3734 94.2C97.3734 86.7333 98.6401 79.7333 101.173 73.2C103.707 66.5333 107.373 60.7333 112.173 55.8C116.973 50.7333 122.773 46.7333 129.573 43.8C136.507 40.8667 144.24 39.4 152.773 39.4C161.307 39.4 168.907 40.8667 175.573 43.8C182.373 46.7333 188.107 50.6667 192.773 55.6C197.573 60.5333 201.173 66.2667 203.573 72.8C206.107 79.3333 207.373 86.1333 207.373 93.2C207.373 94.9333 207.307 96.6 207.173 98.2C207.173 99.8 207.04 101.133 206.773 102.2H125.773C126.173 106.333 127.173 110 128.773 113.2C130.373 116.4 132.44 119.133 134.973 121.4C137.507 123.667 140.373 125.4 143.573 126.6C146.773 127.8 150.107 128.4 153.573 128.4C158.907 128.4 163.907 127.133 168.573 124.6C173.373 121.933 176.64 118.467 178.373 114.2L201.373 120.6C197.507 128.6 191.307 135.2 182.773 140.4C174.373 145.467 164.307 148 152.573 148ZM179.773 84.8C179.107 76.9333 176.173 70.6667 170.973 66C165.907 61.2 159.707 58.8 152.373 58.8C148.773 58.8 145.373 59.4667 142.173 60.8C139.107 62 136.373 63.7333 133.973 66C131.573 68.2667 129.573 71 127.973 74.2C126.507 77.4 125.64 80.9333 125.373 84.8H179.773ZM240.7 146.6C233.633 146.6 227.233 145.2 221.5 142.4C215.767 139.6 210.767 135.8 206.5 131C202.367 126.067 199.167 120.4 196.9 114C194.633 107.6 193.5 100.8 193.5 93.6C193.5 86 194.7 78.9333 197.1 72.4C199.5 65.8667 202.833 60.1333 207.1 55.2C211.367 50.2667 216.5 46.4 222.5 43.6C228.5 40.8 235.1 39.4 242.3 39.4C250.433 39.4 257.567 41.2667 263.7 45C269.833 48.6 274.9 53.4667 278.9 59.6V41.2H302.3V141C302.3 148.733 300.833 155.667 297.9 161.8C294.967 167.933 290.9 173.133 285.7 177.4C280.633 181.667 274.5 184.933 267.3 187.2C260.233 189.467 252.5 190.6 244.1 190.6C232.633 190.6 222.967 188.667 215.1 184.8C207.367 181.067 200.7 175.733 195.1 168.8L209.7 154.6C213.7 159.533 218.7 163.4 224.7 166.2C230.833 169 237.3 170.4 244.1 170.4C248.233 170.4 252.167 169.8 255.9 168.6C259.767 167.533 263.167 165.8 266.1 163.4C269.033 161 271.3 157.933 272.9 154.2C274.633 150.467 275.5 146.067 275.5 141V127.8C272.033 133.8 267.167 138.467 260.9 141.8C254.633 145 247.9 146.6 240.7 146.6ZM249.7 125.2C252.633 125.2 255.433 124.733 258.1 123.8C260.767 122.867 263.233 121.6 265.5 120C267.767 118.4 269.767 116.533 271.5 114.4C273.233 112.267 274.567 110 275.5 107.6V82.6C273.1 76.4667 269.3 71.5333 264.1 67.8C259.033 64.0667 253.7 62.2 248.1 62.2C243.967 62.2 240.233 63.1333 236.9 65C233.567 66.7333 230.7 69.1333 228.3 72.2C225.9 75.1333 224.033 78.5333 222.7 82.4C221.5 86.2667 220.9 90.2667 220.9 94.4C220.9 98.6667 221.633 102.667 223.1 106.4C224.567 110.133 226.567 113.4 229.1 116.2C231.767 119 234.833 121.2 238.3 122.8C241.767 124.4 245.567 125.2 249.7 125.2ZM331.058 148C325.991 148 321.258 147.2 316.858 145.6C312.458 143.867 308.658 141.533 305.458 138.6C302.258 135.533 299.724 132 297.858 128C296.124 124 295.258 119.6 295.258 114.8C295.258 109.867 296.324 105.333 298.458 101.2C300.724 96.9333 303.791 93.3333 307.658 90.4C311.658 87.4667 316.391 85.2 321.858 83.6C327.324 81.8667 333.324 81 339.858 81C344.524 81 349.058 81.4 353.458 82.2C357.991 83 361.991 84.1333 365.458 85.6V79.6C365.458 72.6667 363.458 67.3333 359.458 63.6C355.591 59.8667 349.791 58 342.058 58C336.458 58 330.991 59 325.658 61C320.324 63 314.858 65.9333 309.258 69.8L301.058 52.8C314.524 43.8667 329.058 39.4 344.658 39.4C359.724 39.4 371.391 43.1333 379.658 50.6C388.058 57.9333 392.258 68.6 392.258 82.6V115.2C392.258 118 392.724 120 393.658 121.2C394.724 122.4 396.391 123.067 398.658 123.2V146C394.124 146.933 390.191 147.4 386.858 147.4C381.791 147.4 377.858 146.267 375.058 144C372.391 141.733 370.724 138.733 370.058 135L369.458 129.2C364.791 135.333 359.124 140 352.458 143.2C345.791 146.4 338.658 148 331.058 148ZM338.658 128.4C343.191 128.4 347.458 127.6 351.458 126C355.591 124.4 358.791 122.267 361.058 119.6C363.991 117.333 365.458 114.8 365.458 112V100C362.258 98.8 358.791 97.8667 355.058 97.2C351.324 96.4 347.724 96 344.258 96C337.324 96 331.658 97.6 327.258 100.8C322.858 103.867 320.658 107.8 320.658 112.6C320.658 117.133 322.391 120.933 325.858 124C329.324 126.933 333.591 128.4 338.658 128.4ZM393.102 -3.8147e-06H419.902V112.4C419.902 116.267 420.835 119.267 422.702 121.4C424.568 123.533 427.235 124.6 430.702 124.6C432.302 124.6 434.035 124.333 435.902 123.8C437.902 123.267 439.768 122.6 441.502 121.8L445.102 142.2C441.502 143.933 437.302 145.267 432.502 146.2C427.702 147.133 423.368 147.6 419.502 147.6C411.102 147.6 404.568 145.4 399.902 141C395.368 136.467 393.102 130.067 393.102 121.8V-3.8147e-06ZM481.378 148C472.978 148 465.378 146.6 458.578 143.8C451.778 140.867 445.978 136.933 441.178 132C436.378 127.067 432.645 121.333 429.978 114.8C427.445 108.267 426.178 101.4 426.178 94.2C426.178 86.7333 427.445 79.7333 429.978 73.2C432.511 66.5333 436.178 60.7333 440.978 55.8C445.778 50.7333 451.578 46.7333 458.378 43.8C465.311 40.8667 473.045 39.4 481.578 39.4C490.111 39.4 497.711 40.8667 504.378 43.8C511.178 46.7333 516.911 50.6667 521.578 55.6C526.378 60.5333 529.978 66.2667 532.378 72.8C534.911 79.3333 536.178 86.1333 536.178 93.2C536.178 94.9333 536.111 96.6 535.978 98.2C535.978 99.8 535.845 101.133 535.578 102.2H454.578C454.978 106.333 455.978 110 457.578 113.2C459.178 116.4 461.245 119.133 463.778 121.4C466.311 123.667 469.178 125.4 472.378 126.6C475.578 127.8 478.911 128.4 482.378 128.4C487.711 128.4 492.711 127.133 497.378 124.6C502.178 121.933 505.445 118.467 507.178 114.2L530.178 120.6C526.311 128.6 520.111 135.2 511.578 140.4C503.178 145.467 493.111 148 481.378 148ZM508.578 84.8C507.911 76.9333 504.978 70.6667 499.778 66C494.711 61.2 488.511 58.8 481.178 58.8C477.578 58.8 474.178 59.4667 470.978 60.8C467.911 62 465.178 63.7333 462.778 66C460.378 68.2667 458.378 71 456.778 74.2C455.311 77.4 454.445 80.9333 454.178 84.8H508.578Z" fill="#E74C3C"/>
</svg>
