<svg width="1162" height="250" viewBox="0 0 1162 250" fill="none" xmlns="http://www.w3.org/2000/svg">
<path d="M269.888 180C258.555 191.333 245.355 197 230.288 197C220.955 197 212.155 195.133 203.888 191.4C195.755 187.667 188.622 182.533 182.488 176C176.488 169.467 171.688 161.8 168.088 153C164.622 144.067 162.888 134.467 162.888 124.2C162.888 114.467 164.622 105.333 168.088 96.8C171.688 88.1333 176.555 80.6 182.688 74.2C188.955 67.6667 196.288 62.5333 204.688 58.8C213.088 54.9333 222.222 53 232.088 53C245.422 53 256.822 55.8 266.288 61.4C275.888 67 283.088 74.5333 287.888 84L267.288 99.2C263.688 92.1333 258.622 86.7333 252.088 83C245.688 79.2667 238.688 77.4 231.088 77.4C225.088 77.4 219.555 78.6667 214.488 81.2C209.555 83.7333 205.288 87.2 201.688 91.6C198.222 96 195.488 101.067 193.488 106.8C191.622 112.533 190.688 118.6 190.688 125C190.688 131.667 191.755 137.933 193.888 143.8C196.022 149.533 198.955 154.533 202.688 158.8C206.422 163.067 210.822 166.467 215.888 169C221.088 171.4 226.688 172.6 232.688 172.6C246.422 172.6 258.822 166.133 269.888 153.2V143.2H241.288V123H292.688V196H269.888V180ZM362.01 198C353.477 198 345.81 196.533 339.01 193.6C332.21 190.667 326.41 186.733 321.61 181.8C316.943 176.733 313.343 170.933 310.81 164.4C308.277 157.867 307.01 151 307.01 143.8C307.01 136.467 308.277 129.533 310.81 123C313.343 116.467 316.943 110.733 321.61 105.8C326.41 100.733 332.21 96.7333 339.01 93.8C345.81 90.8667 353.477 89.4 362.01 89.4C370.543 89.4 378.143 90.8667 384.81 93.8C391.61 96.7333 397.343 100.733 402.01 105.8C406.81 110.733 410.477 116.467 413.01 123C415.543 129.533 416.81 136.467 416.81 143.8C416.81 151 415.543 157.867 413.01 164.4C410.477 170.933 406.877 176.733 402.21 181.8C397.543 186.733 391.81 190.667 385.01 193.6C378.21 196.533 370.543 198 362.01 198ZM334.61 143.8C334.61 148.467 335.277 152.733 336.61 156.6C338.077 160.333 340.01 163.6 342.41 166.4C344.943 169.2 347.877 171.4 351.21 173C354.543 174.467 358.143 175.2 362.01 175.2C365.877 175.2 369.477 174.467 372.81 173C376.143 171.4 379.01 169.2 381.41 166.4C383.943 163.6 385.877 160.267 387.21 156.4C388.677 152.533 389.41 148.267 389.41 143.6C389.41 139.067 388.677 134.867 387.21 131C385.877 127.133 383.943 123.8 381.41 121C379.01 118.2 376.143 116.067 372.81 114.6C369.477 113 365.877 112.2 362.01 112.2C358.143 112.2 354.543 113 351.21 114.6C347.877 116.2 344.943 118.4 342.41 121.2C340.01 124 338.077 127.333 336.61 131.2C335.277 135.067 334.61 139.267 334.61 143.8ZM466.899 198C456.099 198 447.899 194.533 442.299 187.6C436.699 180.667 433.899 170.4 433.899 156.8V91.2H460.699V151C460.699 167.133 466.499 175.2 478.099 175.2C483.299 175.2 488.299 173.667 493.099 170.6C498.033 167.4 502.033 162.6 505.099 156.2V91.2H531.899V165.2C531.899 168 532.366 170 533.299 171.2C534.366 172.4 536.033 173.067 538.299 173.2V196C535.633 196.533 533.366 196.867 531.499 197C529.766 197.133 528.166 197.2 526.699 197.2C521.899 197.2 517.966 196.133 514.899 194C511.966 191.733 510.233 188.667 509.699 184.8L509.099 176.4C504.433 183.6 498.433 189 491.099 192.6C483.766 196.2 475.699 198 466.899 198ZM620.932 114.4C612.799 114.533 605.532 116.133 599.132 119.2C592.732 122.133 588.132 126.6 585.332 132.6V196H558.532V91.2H583.132V113.6C584.999 110 587.199 106.8 589.732 104C592.265 101.067 594.999 98.5333 597.932 96.4C600.865 94.2667 603.799 92.6667 606.732 91.6C609.799 90.4 612.732 89.8 615.532 89.8C616.999 89.8 618.065 89.8 618.732 89.8C619.532 89.8 620.265 89.8667 620.932 90V114.4ZM798.676 196H771.876V137.2C771.876 128.8 770.409 122.667 767.476 118.8C764.676 114.933 760.742 113 755.676 113C750.342 113 745.342 115.067 740.676 119.2C736.009 123.2 732.676 128.467 730.676 135V196H703.876V137.2C703.876 128.8 702.409 122.667 699.476 118.8C696.676 114.933 692.742 113 687.676 113C682.476 113 677.476 115 672.676 119C668.009 123 664.676 128.267 662.676 134.8V196H635.876V91.2H660.076V110.6C663.942 103.8 669.209 98.6 675.876 95C682.676 91.2667 690.409 89.4 699.076 89.4C707.876 89.4 714.676 91.5333 719.476 95.8C724.276 100.067 727.342 105.333 728.676 111.6C732.942 104.4 738.342 98.9333 744.876 95.2C751.409 91.3333 758.876 89.4 767.276 89.4C773.676 89.4 778.942 90.6 783.076 93C787.209 95.4 790.409 98.5333 792.676 102.4C794.942 106.267 796.476 110.667 797.276 115.6C798.209 120.533 798.676 125.533 798.676 130.6V196ZM870.609 198C862.209 198 854.609 196.6 847.809 193.8C841.009 190.867 835.209 186.933 830.409 182C825.609 177.067 821.875 171.333 819.209 164.8C816.675 158.267 815.409 151.4 815.409 144.2C815.409 136.733 816.675 129.733 819.209 123.2C821.742 116.533 825.409 110.733 830.209 105.8C835.009 100.733 840.809 96.7333 847.609 93.8C854.542 90.8667 862.275 89.4 870.809 89.4C879.342 89.4 886.942 90.8667 893.609 93.8C900.409 96.7333 906.142 100.667 910.809 105.6C915.609 110.533 919.209 116.267 921.609 122.8C924.142 129.333 925.409 136.133 925.409 143.2C925.409 144.933 925.342 146.6 925.209 148.2C925.209 149.8 925.075 151.133 924.809 152.2H843.809C844.209 156.333 845.209 160 846.809 163.2C848.409 166.4 850.475 169.133 853.009 171.4C855.542 173.667 858.409 175.4 861.609 176.6C864.809 177.8 868.142 178.4 871.609 178.4C876.942 178.4 881.942 177.133 886.609 174.6C891.409 171.933 894.675 168.467 896.409 164.2L919.409 170.6C915.542 178.6 909.342 185.2 900.809 190.4C892.409 195.467 882.342 198 870.609 198ZM897.809 134.8C897.142 126.933 894.209 120.667 889.009 116C883.942 111.2 877.742 108.8 870.409 108.8C866.809 108.8 863.409 109.467 860.209 110.8C857.142 112 854.409 113.733 852.009 116C849.609 118.267 847.609 121 846.009 124.2C844.542 127.4 843.675 130.933 843.409 134.8H897.809ZM1003.75 190.6C1000.15 192.2 995.754 193.8 990.554 195.4C985.354 197 979.887 197.8 974.154 197.8C970.421 197.8 966.887 197.333 963.554 196.4C960.354 195.467 957.487 194 954.954 192C952.554 189.867 950.621 187.2 949.154 184C947.687 180.667 946.954 176.667 946.954 172V111.8H933.154V91.2H946.954V57.2H973.754V91.2H995.754V111.8H973.754V163C973.754 166.733 974.687 169.4 976.554 171C978.554 172.467 980.954 173.2 983.754 173.2C986.554 173.2 989.287 172.733 991.954 171.8C994.621 170.867 996.754 170.067 998.354 169.4L1003.75 190.6Z" fill="#F24064"/>
</svg>
