<svg id="Layer_1" enable-background="new 0 0 512 512" height="512" viewBox="0 0 512 512" width="512" xmlns="http://www.w3.org/2000/svg"><g><circle cx="256" cy="256" fill="#55c7a6" r="256"/><g><g><g><path d="m325.449 295.455.131 47.759-318.365 45.169v-43.45z" fill="#aa321e"/><path d="m7.215 388.383c0-33.554 27.293-63.016 66.46-76.166 39.311-13.199 74.709-35.4 104.716-63.86 15.261-14.474 33.964-22.994 54.173-22.994 51.422 0 93.108 55.162 93.108 123.208s-42.965 111.891-93.108 123.208c-144.385 32.585-225.349-33.861-225.349-83.396z" fill="#aa321e"/><path d="m7.215 343.721c0-33.554 27.293-63.016 66.46-76.166 39.311-13.199 74.709-35.4 104.716-63.86 15.261-14.474 33.964-22.994 54.173-22.994 51.422 0 93.108 55.162 93.108 123.208s-42.965 111.891-93.108 123.208c-144.385 32.585-225.349-37.338-225.349-83.396z" fill="#e33442"/><path d="m36.686 343.722c0-8.931 3.843-17.98 11.113-26.171 8.452-9.523 20.643-17.151 35.256-22.058 42.495-14.267 81.394-37.958 115.616-70.414 10.283-9.753 22.003-14.908 33.893-14.908 16.246 0 31.797 9.266 43.789 26.09 12.8 17.958 19.849 41.983 19.849 67.649 0 26.752-7.737 49.111-22.996 66.455-12.294 13.974-29.031 23.92-47.129 28.004-97.944 22.104-149.86-8.563-167.635-22.774-17.174-13.728-21.756-26.494-21.756-31.873m-11.052 0c0 9.569 6.806 25.237 25.906 40.506 19.023 15.208 74.348 48.081 176.969 24.922 36.325-8.199 78.744-40.681 78.744-105.24 0-57.781-33.505-104.79-74.689-104.79-14.774 0-29.124 6.204-41.498 17.941-33.045 31.34-70.569 54.204-111.528 67.955-16.44 5.52-30.273 14.234-40.004 25.199-9.093 10.244-13.9 21.829-13.9 33.507z" fill="#fff"/><circle cx="229.998" cy="317.671" fill="#fff" r="33.106"/><circle cx="229.998" cy="317.671" fill="#aa321e" r="22.216"/><g><path d="m133.289 260.626c1.917.647 3.508 1.329 5.166 2.123 1.632.785 3.208 1.651 4.744 2.577 3.073 1.852 5.987 3.94 8.757 6.211 2.771 2.27 5.366 4.762 7.811 7.398 2.414 2.674 4.107 6.062 5.593 9.477.737 1.719 1.485 3.391 2.304 4.989.834 1.582 1.727 3.1 2.757 4.511 1.997 2.872 4.189 5.603 6.385 8.425 1.134 1.386 2.222 2.825 3.359 4.261.575.714 1.069 1.481 1.61 2.228.517.76 1.093 1.495 1.565 2.291.958 1.582 1.945 3.175 2.678 4.894.832 1.678 1.427 3.458 1.962 5.259.572 1.789.814 3.676 1.145 5.524.185 1.881.467 3.748.453 5.642.02.944.032 1.887.02 2.829l-.056 2.519c-.049 1.642-.182 3.283-.194 4.944-.245 6.628-.296 13.405.051 20.196.374 6.787 1.262 13.565 2.812 20.185.72 3.323 1.629 6.61 3.201 9.684.791 1.534 1.68 3.036 2.771 4.458 1.088 1.407 2.317 2.827 3.923 3.93l-10.418 3.688c.493-2.122.657-3.945.725-5.793.054-1.829-.035-3.596-.217-5.332-.181-1.735-.505-3.424-.881-5.096-.398-1.667-.914-3.3-1.365-4.953-1.861-6.594-3.939-13.147-5.984-19.793-1.064-3.314-2.011-6.675-2.937-10.062-.424-1.702-.873-3.407-1.276-5.123-.38-1.722-.704-3.46-1.032-5.201-.182-.868-.308-1.745-.416-2.628l-.345-2.647-.15-1.327c-.05-.437-.098-.912-.154-1.266-.115-.762-.205-1.521-.287-2.28-.064-.76-.198-1.514-.35-2.265l-.366-2.259-.505-2.238c-.152-.749-.288-1.5-.47-2.248-.157-.753-.342-1.499-.457-2.268-.135-.763-.346-1.512-.475-2.288-.269-1.547-.62-3.096-.916-4.687-.663-3.155-1.403-6.418-2.644-9.5-1.179-3.112-2.865-6.011-4.871-8.661-2.017-2.652-4.798-4.712-7.871-6.362-1.525-.839-3.069-1.626-4.534-2.468-.733-.421-1.441-.859-2.117-1.326-.702-.443-1.361-.925-1.995-1.431l-7.47-6.219c-2.488-2.079-4.969-4.175-7.426-6.322-1.229-1.072-2.452-2.159-3.659-3.266-1.178-1.104-2.457-2.269-3.477-3.361z" fill="#fff"/></g><g><path d="m103.481 287.858c-.671.843-1.354 1.93-1.972 2.949-.622 1.041-1.206 2.109-1.77 3.188-1.123 2.161-2.111 4.39-3.043 6.643-1.821 4.521-3.279 9.186-4.412 13.925-.572 2.369-1.038 4.761-1.444 7.163-.431 2.398-.572 4.843-.444 7.304.301 4.94 1.623 9.853 1.814 14.598.237 4.761-.151 9.45-.832 14.265-.708 4.812-.773 9.7.232 14.397.867 4.72 2.349 9.301 4.197 13.682 1.91 4.361 4.377 8.459 7.425 12.062l-9.756 5.191c-1.431-5.155-2.986-10.057-4.211-15.029-1.208-4.963-2.378-9.882-3.237-14.854-.257-1.236-.423-2.483-.679-3.719-.247-1.237-.56-2.466-.83-3.703-.276-1.236-.619-2.469-.966-3.709l-.956-3.739c-1.281-5.002-1.888-10.162-1.249-15.233.566-5.085 2.678-9.987 4.163-14.814.76-2.418 1.29-4.845 1.664-7.301.17-1.23.406-2.449.607-3.675.181-1.229.399-2.452.609-3.676l2.482-14.767 1.208-7.487.575-3.807.571-3.977z" fill="#fff"/></g><g><path d="m243.703 204.319c1.611 6.311 2.62 12.81 3.552 19.191.907 6.405 1.631 12.801 2.312 19.189.689 6.388 1.09 12.802 1.392 19.293.335 6.475.733 13.028 2.064 19.383 1.315 6.342 3.568 12.496 7.009 17.863.816 1.374 1.854 2.568 2.807 3.828 1.07 1.274 2.163 2.534 3.281 3.777l6.801 7.427 3.34 3.779c1.087 1.281 2.15 2.58 3.197 3.892 2.063 2.646 4.009 5.378 5.847 8.19 1.842 2.81 3.548 5.715 5.134 8.706.77 1.511 1.541 3.027 2.224 4.599.342.794.693 1.569.999 2.394.33.827.599 1.594.922 2.582l-9.988 4.731c-.402-.497-.889-1.199-1.333-1.831-.457-.641-.909-1.31-1.35-1.97-.465-.658-.898-1.33-1.334-2.005-.439-.676-.9-1.338-1.319-2.024-1.735-2.722-3.446-5.473-5.082-8.282-1.644-2.805-3.258-5.64-4.787-8.54-1.552-2.887-2.97-5.872-4.429-8.844-1.432-2.989-2.892-5.971-4.42-8.915-.777-1.463-1.579-2.91-2.404-4.342l-1.282-2.26-.658-1.115-.598-1.14c-3.286-6.018-6.226-12.095-9.126-18.271-2.909-6.164-5.875-12.413-8.34-18.852-2.459-6.434-4.255-13.062-5.359-19.766-1.123-6.704-1.722-13.464-1.84-20.234-.038-3.386.044-6.776.299-10.168.272-3.41.651-6.743 1.421-10.239z" fill="#fff"/></g></g><g><path d="m143.905 344.624c.822 4.486 1.188 8.78 1.616 12.971.215 2.092.448 4.144.736 6.126.123 1 .339 1.947.497 2.898l.332 1.359.386 1.779c.856 4.797.602 9.284-.016 13.708-.681 4.407-1.756 8.73-3.62 12.87-.775-4.457-1.141-8.78-1.531-13.034-.38-4.223-.687-8.466-1.459-12.194l-.33-1.39-.396-1.808c-.203-1.185-.341-2.376-.402-3.536-.124-2.331-.041-4.616.249-6.856.276-2.24.719-4.443 1.336-6.602.626-2.156 1.373-4.281 2.463-6.313z" fill="#fff"/></g><g><path d="m199.1 225.364-4.222 22.084-.189-1.06 3.738 19.023-9.496-16.902-.189-1.061-4.222-22.084z" fill="#fff"/></g></g><g><g><g><path d="m472.952 343.56c-2.549 2.549-6.682 2.549-9.23 0l-16.177-16.177c-2.549-2.549-2.549-6.682 0-9.23-33.437-20.639-60.217-47.935-80.329-81.899-1.518-2.563-1.11-5.833.996-7.939l21.648-21.648 84.585 84.585 6.678 6.678 14.115 14.115c2.549 2.549 2.549 6.682 0 9.23z" fill="#a56941"/><path d="m375.109 228.358c20.112 33.964 46.892 61.26 80.329 81.899-2.549 2.549-2.549 6.682 0 9.23l16.177 16.177c2.549 2.549 6.682 2.549 9.23 0l-7.895 7.895c-2.549 2.549-6.682 2.549-9.23 0l-16.177-16.177c-2.549-2.549-2.549-6.682 0-9.23-33.437-20.639-60.217-47.935-80.329-81.899-1.518-2.563-1.11-5.833.996-7.939l7.895-7.895c-2.105 2.107-2.513 5.377-.996 7.939z" fill="#965028"/><g fill="#fff"><circle cx="403.975" cy="245.31" r="4.942"/><circle cx="445.643" cy="286.979" r="4.942"/></g></g><path d="m232.952 39.126c-7.438-7.942-19.975-8.147-27.669-.453l-69.555 69.555c-5.996 5.996-6.775 15.486-1.765 22.327 36.051 49.221 83.062 88.487 139.276 119.395 6.746 3.71 15.126 2.562 20.571-2.883l22.963-22.963c.757-.249 1.493-.599 2.187-1.057 15.273-10.084 36.029-8.404 49.475 5.042l21.422-21.422zm-18.801 27.436c-8.404-8.404 4.649-21.429 13.039-13.039 8.404 8.403-4.649 21.429-13.039 13.039z" fill="#afe6ff"/><g><path d="m287.685 235.504c-56.214-30.908-103.225-70.174-139.276-119.395-5.01-6.841-4.231-16.331 1.765-22.327l-14.446 14.446c-5.996 5.996-6.775 15.486-1.765 22.327 36.051 49.221 83.062 88.487 139.276 119.395 6.746 3.71 15.126 2.562 20.571-2.883l14.446-14.446c-5.444 5.445-13.824 6.593-20.571 2.883z" fill="#fff"/></g></g><g fill="#fff"><path d="m312.604 126.12h-156.478v20.128h175.329z"/><path d="m347.112 161.024h-166.341v12.586h178.128z"/></g></g></g></g></svg>