<svg width="557" height="191" viewBox="0 0 557 191" fill="none" xmlns="http://www.w3.org/2000/svg">
<path d="M0.495313 146V3.99999H63.2953C69.8286 3.99999 75.8286 5.39999 81.2953 8.2C86.8953 10.8667 91.6953 14.4667 95.6953 19C99.6953 23.4 102.829 28.4667 105.095 34.2C107.362 39.8 108.495 45.4667 108.495 51.2C108.495 60.4 106.162 68.8 101.495 76.4C96.962 83.8667 90.762 89.2667 82.8953 92.6L115.295 146H84.2953L55.2953 98.4H28.0953V146H0.495313ZM28.0953 74.2H62.6953C65.2286 74.2 67.562 73.6 69.6953 72.4C71.962 71.2 73.8953 69.6 75.4953 67.6C77.0953 65.4667 78.362 63 79.2953 60.2C80.2287 57.4 80.6953 54.4 80.6953 51.2C80.6953 47.8667 80.162 44.8 79.0953 42C78.0286 39.2 76.562 36.8 74.6953 34.8C72.962 32.6667 70.8953 31.0667 68.4953 30C66.2287 28.8 63.8953 28.2 61.4953 28.2H28.0953V74.2ZM156.573 148C148.173 148 140.573 146.6 133.773 143.8C126.973 140.867 121.173 136.933 116.373 132C111.573 127.067 107.84 121.333 105.173 114.8C102.64 108.267 101.373 101.4 101.373 94.2C101.373 86.7333 102.64 79.7333 105.173 73.2C107.707 66.5333 111.373 60.7333 116.173 55.8C120.973 50.7333 126.773 46.7333 133.573 43.8C140.507 40.8667 148.24 39.4 156.773 39.4C165.307 39.4 172.907 40.8667 179.573 43.8C186.373 46.7333 192.107 50.6667 196.773 55.6C201.573 60.5333 205.173 66.2667 207.573 72.8C210.107 79.3333 211.373 86.1333 211.373 93.2C211.373 94.9333 211.307 96.6 211.173 98.2C211.173 99.8 211.04 101.133 210.773 102.2H129.773C130.173 106.333 131.173 110 132.773 113.2C134.373 116.4 136.44 119.133 138.973 121.4C141.507 123.667 144.373 125.4 147.573 126.6C150.773 127.8 154.107 128.4 157.573 128.4C162.907 128.4 167.907 127.133 172.573 124.6C177.373 121.933 180.64 118.467 182.373 114.2L205.373 120.6C201.507 128.6 195.307 135.2 186.773 140.4C178.373 145.467 168.307 148 156.573 148ZM183.773 84.8C183.107 76.9333 180.173 70.6667 174.973 66C169.907 61.2 163.707 58.8 156.373 58.8C152.773 58.8 149.373 59.4667 146.173 60.8C143.107 62 140.373 63.7333 137.973 66C135.573 68.2667 133.573 71 131.973 74.2C130.507 77.4 129.64 80.9333 129.373 84.8H183.773ZM248.7 146.6C241.633 146.6 235.233 145.2 229.5 142.4C223.767 139.6 218.767 135.8 214.5 131C210.367 126.067 207.167 120.4 204.9 114C202.633 107.6 201.5 100.8 201.5 93.6C201.5 86 202.7 78.9333 205.1 72.4C207.5 65.8667 210.833 60.1333 215.1 55.2C219.367 50.2667 224.5 46.4 230.5 43.6C236.5 40.8 243.1 39.4 250.3 39.4C258.433 39.4 265.567 41.2667 271.7 45C277.833 48.6 282.9 53.4667 286.9 59.6V41.2H310.3V141C310.3 148.733 308.833 155.667 305.9 161.8C302.967 167.933 298.9 173.133 293.7 177.4C288.633 181.667 282.5 184.933 275.3 187.2C268.233 189.467 260.5 190.6 252.1 190.6C240.633 190.6 230.967 188.667 223.1 184.8C215.367 181.067 208.7 175.733 203.1 168.8L217.7 154.6C221.7 159.533 226.7 163.4 232.7 166.2C238.833 169 245.3 170.4 252.1 170.4C256.233 170.4 260.167 169.8 263.9 168.6C267.767 167.533 271.167 165.8 274.1 163.4C277.033 161 279.3 157.933 280.9 154.2C282.633 150.467 283.5 146.067 283.5 141V127.8C280.033 133.8 275.167 138.467 268.9 141.8C262.633 145 255.9 146.6 248.7 146.6ZM257.7 125.2C260.633 125.2 263.433 124.733 266.1 123.8C268.767 122.867 271.233 121.6 273.5 120C275.767 118.4 277.767 116.533 279.5 114.4C281.233 112.267 282.567 110 283.5 107.6V82.6C281.1 76.4667 277.3 71.5333 272.1 67.8C267.033 64.0667 261.7 62.2 256.1 62.2C251.967 62.2 248.233 63.1333 244.9 65C241.567 66.7333 238.7 69.1333 236.3 72.2C233.9 75.1333 232.033 78.5333 230.7 82.4C229.5 86.2667 228.9 90.2667 228.9 94.4C228.9 98.6667 229.633 102.667 231.1 106.4C232.567 110.133 234.567 113.4 237.1 116.2C239.767 119 242.833 121.2 246.3 122.8C249.767 124.4 253.567 125.2 257.7 125.2ZM343.058 148C337.991 148 333.258 147.2 328.858 145.6C324.458 143.867 320.658 141.533 317.458 138.6C314.258 135.533 311.724 132 309.858 128C308.124 124 307.258 119.6 307.258 114.8C307.258 109.867 308.324 105.333 310.458 101.2C312.724 96.9333 315.791 93.3333 319.658 90.4C323.658 87.4667 328.391 85.2 333.858 83.6C339.324 81.8667 345.324 81 351.858 81C356.524 81 361.058 81.4 365.458 82.2C369.991 83 373.991 84.1333 377.458 85.6V79.6C377.458 72.6667 375.458 67.3333 371.458 63.6C367.591 59.8667 361.791 58 354.058 58C348.458 58 342.991 59 337.658 61C332.324 63 326.858 65.9333 321.258 69.8L313.058 52.8C326.524 43.8667 341.058 39.4 356.658 39.4C371.724 39.4 383.391 43.1333 391.658 50.6C400.058 57.9333 404.258 68.6 404.258 82.6V115.2C404.258 118 404.724 120 405.658 121.2C406.724 122.4 408.391 123.067 410.658 123.2V146C406.124 146.933 402.191 147.4 398.858 147.4C393.791 147.4 389.858 146.267 387.058 144C384.391 141.733 382.724 138.733 382.058 135L381.458 129.2C376.791 135.333 371.124 140 364.458 143.2C357.791 146.4 350.658 148 343.058 148ZM350.658 128.4C355.191 128.4 359.458 127.6 363.458 126C367.591 124.4 370.791 122.267 373.058 119.6C375.991 117.333 377.458 114.8 377.458 112V100C374.258 98.8 370.791 97.8667 367.058 97.2C363.324 96.4 359.724 96 356.258 96C349.324 96 343.658 97.6 339.258 100.8C334.858 103.867 332.658 107.8 332.658 112.6C332.658 117.133 334.391 120.933 337.858 124C341.324 126.933 345.591 128.4 350.658 128.4ZM409.102 -3.8147e-06H435.902V112.4C435.902 116.267 436.835 119.267 438.702 121.4C440.568 123.533 443.235 124.6 446.702 124.6C448.302 124.6 450.035 124.333 451.902 123.8C453.902 123.267 455.768 122.6 457.502 121.8L461.102 142.2C457.502 143.933 453.302 145.267 448.502 146.2C443.702 147.133 439.368 147.6 435.502 147.6C427.102 147.6 420.568 145.4 415.902 141C411.368 136.467 409.102 130.067 409.102 121.8V-3.8147e-06ZM501.378 148C492.978 148 485.378 146.6 478.578 143.8C471.778 140.867 465.978 136.933 461.178 132C456.378 127.067 452.645 121.333 449.978 114.8C447.445 108.267 446.178 101.4 446.178 94.2C446.178 86.7333 447.445 79.7333 449.978 73.2C452.511 66.5333 456.178 60.7333 460.978 55.8C465.778 50.7333 471.578 46.7333 478.378 43.8C485.311 40.8667 493.045 39.4 501.578 39.4C510.111 39.4 517.711 40.8667 524.378 43.8C531.178 46.7333 536.911 50.6667 541.578 55.6C546.378 60.5333 549.978 66.2667 552.378 72.8C554.911 79.3333 556.178 86.1333 556.178 93.2C556.178 94.9333 556.111 96.6 555.978 98.2C555.978 99.8 555.845 101.133 555.578 102.2H474.578C474.978 106.333 475.978 110 477.578 113.2C479.178 116.4 481.245 119.133 483.778 121.4C486.311 123.667 489.178 125.4 492.378 126.6C495.578 127.8 498.911 128.4 502.378 128.4C507.711 128.4 512.711 127.133 517.378 124.6C522.178 121.933 525.445 118.467 527.178 114.2L550.178 120.6C546.311 128.6 540.111 135.2 531.578 140.4C523.178 145.467 513.111 148 501.378 148ZM528.578 84.8C527.911 76.9333 524.978 70.6667 519.778 66C514.711 61.2 508.511 58.8 501.178 58.8C497.578 58.8 494.178 59.4667 490.978 60.8C487.911 62 485.178 63.7333 482.778 66C480.378 68.2667 478.378 71 476.778 74.2C475.311 77.4 474.445 80.9333 474.178 84.8H528.578Z" fill="white"/>
</svg>
