<svg id="Layer_1" enable-background="new 0 0 512.146 512.146" height="512" viewBox="0 0 512.146 512.146" width="512" xmlns="http://www.w3.org/2000/svg"><g><path d="m426.018 137.572 22.61-22.61-21.213-21.213-22.61 22.61c-28.996-25.45-63.482-42.764-100.657-50.783v-35.576h21.402v-30h-138.955v30h21.402v35.576c-37.175 8.019-71.66 25.334-100.657 50.783l-22.61-22.61-21.213 21.213 22.61 22.61c-36.144 41.182-55.896 93.436-55.896 148.732 0 60.324 23.492 117.038 66.147 159.694 42.656 42.656 99.37 66.147 159.694 66.147s117.038-23.492 159.693-66.147c42.656-42.656 66.147-99.37 66.147-159.694.002-55.296-19.75-107.55-55.894-148.732zm-188.021-107.572h36.151v31.183c-5.982-.471-12.009-.72-18.075-.72s-12.093.249-18.076.72zm18.076 452.146c-107.987 0-195.841-87.854-195.841-195.841s87.854-195.841 195.841-195.841 195.841 87.854 195.841 195.841-87.854 195.841-195.841 195.841z"/><path d="m256.073 119.229c-92.125 0-167.075 74.949-167.075 167.075s74.95 167.075 167.075 167.075 167.075-74.95 167.075-167.075-74.95-167.075-167.075-167.075zm15 303.326v-24.853h-30v24.853c-63.624-6.957-114.294-57.627-121.251-121.251h24.853v-30h-24.852c6.957-63.624 57.627-114.293 121.251-121.25v24.853h30v-24.853c63.624 6.957 114.293 57.627 121.25 121.25h-24.852v30h24.853c-6.959 63.624-57.628 114.294-121.252 121.251z"/><path d="m256.073 241.162c-6.979 0-13.592 1.593-19.497 4.433l-47.743-47.744-21.213 21.213 47.743 47.744c-2.84 5.905-4.433 12.518-4.433 19.497 0 24.892 20.251 45.143 45.143 45.143s45.142-20.251 45.142-45.143-20.25-45.143-45.142-45.143zm0 60.285c-8.35 0-15.143-6.793-15.143-15.143 0-8.349 6.793-15.142 15.143-15.142s15.142 6.793 15.142 15.142c0 8.35-6.792 15.143-15.142 15.143z"/></g></svg>